<svg width="1920" height="1080" viewBox="0 0 1920 1080" xmlns="http://www.w3.org/2000/svg" role="img" aria-label="Stylized DNA illustration">
  <defs>
    <linearGradient id="bg" x1="0%" y1="0%" x2="100%" y2="100%">
      <stop offset="0%" stop-color="#f4f9ff"/>
      <stop offset="100%" stop-color="#edf6ff"/>
    </linearGradient>
    <linearGradient id="helix" x1="0%" y1="0%" x2="100%" y2="100%">
      <stop offset="0%" stop-color="#7c83ff" stop-opacity="0.85"/>
      <stop offset="100%" stop-color="#3b5ccc" stop-opacity="0.95"/>
    </linearGradient>
    <linearGradient id="helix2" x1="100%" y1="0%" x2="0%" y2="100%">
      <stop offset="0%" stop-color="#a1d7ff" stop-opacity="0.7"/>
      <stop offset="100%" stop-color="#66b4ff" stop-opacity="0.9"/>
    </linearGradient>
    <linearGradient id="strand" x1="0%" y1="0%" x2="100%" y2="0%">
      <stop offset="0%" stop-color="#f1b2ff"/>
      <stop offset="100%" stop-color="#c88bff"/>
    </linearGradient>
    <filter id="blurSoft" x="-10%" y="-10%" width="120%" height="120%">
      <feGaussianBlur stdDeviation="25" />
    </filter>
  </defs>
  <rect width="1920" height="1080" fill="url(#bg)" />
  <g opacity="0.4" filter="url(#blurSoft)">
    <circle cx="400" cy="260" r="210" fill="#d3e7ff"/>
    <circle cx="1580" cy="880" r="260" fill="#dbeafe"/>
    <circle cx="1360" cy="280" r="220" fill="#ffe0f7"/>
  </g>
  <g opacity="0.9">
    <path d="M220 1080 C480 650, 320 430, 600 0" stroke="url(#helix)" stroke-width="34" fill="none"/>
    <path d="M360 1080 C620 650, 460 430, 740 0" stroke="url(#helix2)" stroke-width="34" fill="none"/>
    <path d="M640 1080 C900 650, 740 430, 1020 0" stroke="url(#helix)" stroke-width="34" fill="none"/>
    <path d="M780 1080 C1040 650, 880 430, 1160 0" stroke="url(#helix2)" stroke-width="34" fill="none"/>
    <path d="M1080 1080 C1340 650, 1180 430, 1460 0" stroke="url(#helix)" stroke-width="34" fill="none"/>
    <path d="M1220 1080 C1480 650, 1320 430, 1600 0" stroke="url(#helix2)" stroke-width="34" fill="none"/>
  </g>
  <g stroke="url(#strand)" stroke-width="6" opacity="0.7">
    <line x1="280" y1="930" x2="420" y2="840" />
    <line x1="340" y1="830" x2="480" y2="740" />
    <line x1="410" y1="720" x2="550" y2="630" />
    <line x1="480" y1="610" x2="620" y2="520" />
    <line x1="550" y1="500" x2="690" y2="410" />
    <line x1="620" y1="390" x2="760" y2="300" />
    <line x1="690" y1="280" x2="830" y2="190" />
    <line x1="760" y1="170" x2="900" y2="80" />
  </g>
  <g stroke="url(#strand)" stroke-width="6" opacity="0.7">
    <line x1="1100" y1="980" x2="1240" y2="900" />
    <line x1="1170" y1="870" x2="1310" y2="790" />
    <line x1="1240" y1="760" x2="1380" y2="680" />
    <line x1="1310" y1="650" x2="1450" y2="570" />
    <line x1="1380" y1="540" x2="1520" y2="460" />
    <line x1="1450" y1="430" x2="1590" y2="350" />
    <line x1="1520" y1="320" x2="1660" y2="240" />
    <line x1="1590" y1="210" x2="1730" y2="130" />
  </g>
  <g opacity="0.45" stroke="#8db0ff" stroke-width="3">
    <circle cx="980" cy="200" r="40" fill="none"/>
    <circle cx="980" cy="200" r="60" fill="none"/>
    <circle cx="980" cy="200" r="80" fill="none"/>
    <circle cx="1460" cy="760" r="40" fill="none"/>
    <circle cx="1460" cy="760" r="60" fill="none"/>
    <circle cx="1460" cy="760" r="80" fill="none"/>
  </g>
</svg>
